<?xml version="1.0" encoding="UTF-8" standalone="no"?>
<!-- Created with Inkscape (http://www.inkscape.org/) -->

<svg
   xmlns:dc="http://purl.org/dc/elements/1.1/"
   xmlns:cc="http://creativecommons.org/ns#"
   xmlns:rdf="http://www.w3.org/1999/02/22-rdf-syntax-ns#"
   xmlns:svg="http://www.w3.org/2000/svg"
   xmlns="http://www.w3.org/2000/svg"
   xmlns:sodipodi="http://sodipodi.sourceforge.net/DTD/sodipodi-0.dtd"
   xmlns:inkscape="http://www.inkscape.org/namespaces/inkscape"
   width="140.96201"
   height="155.74425"
   id="svg4302"
   version="1.1"
   inkscape:version="0.48.3.1 r9886"
   sodipodi:docname="New document 6">
  <defs
     id="defs4304" />
  <sodipodi:namedview
     id="base"
     pagecolor="#ffffff"
     bordercolor="#666666"
     borderopacity="1.0"
     inkscape:pageopacity="0.0"
     inkscape:pageshadow="2"
     inkscape:zoom="0.35"
     inkscape:cx="70.481"
     inkscape:cy="77.872123"
     inkscape:document-units="px"
     inkscape:current-layer="layer1"
     showgrid="false"
     fit-margin-top="10"
     fit-margin-left="10"
     fit-margin-right="10"
     fit-margin-bottom="10"
     inkscape:window-width="501"
     inkscape:window-height="442"
     inkscape:window-x="468"
     inkscape:window-y="229"
     inkscape:window-maximized="0" />
  <metadata
     id="metadata4307">
    <rdf:RDF>
      <cc:Work
         rdf:about="">
        <dc:format>image/svg+xml</dc:format>
        <dc:type
           rdf:resource="http://purl.org/dc/dcmitype/StillImage" />
        <dc:title></dc:title>
      </cc:Work>
    </rdf:RDF>
  </metadata>
  <g
     inkscape:label="Layer 1"
     inkscape:groupmode="layer"
     id="layer1"
     transform="translate(-304.519,-454.49005)">
    <g
       transform="matrix(1.25,0,0,-1.25,-277.4435,1026.2613)"
       id="g4239">
      <g
         transform="translate(531.3501,440.023)"
         id="g3054">
        <path
           inkscape:connector-curvature="0"
           id="path3056"
           style="fill:#ed1d24;fill-opacity:1;fill-rule:nonzero;stroke:none"
           d="m 0,0 c 0,5.188 -4.207,9.394 -9.395,9.394 -5.189,0 -9.393,-4.206 -9.393,-9.394 0,-5.188 4.204,-9.394 9.393,-9.394 C -4.207,-9.394 0,-5.188 0,0" />
      </g>
      <g
         transform="translate(570.3396,417.5017)"
         id="g3058">
        <path
           inkscape:connector-curvature="0"
           id="path3060"
           style="fill:#ed1d24;fill-opacity:1;fill-rule:nonzero;stroke:none"
           d="m 0,0 c 0,5.188 -4.203,9.393 -9.392,9.393 -5.19,0 -9.395,-4.205 -9.395,-9.393 0,-5.19 4.205,-9.395 9.395,-9.395 C -4.203,-9.395 0,-5.19 0,0" />
      </g>
      <g
         transform="translate(570.3396,372.88)"
         id="g3062">
        <path
           inkscape:connector-curvature="0"
           id="path3064"
           style="fill:#ed1d24;fill-opacity:1;fill-rule:nonzero;stroke:none"
           d="m 0,0 c 0,5.188 -4.203,9.391 -9.392,9.391 -5.19,0 -9.395,-4.203 -9.395,-9.391 0,-5.189 4.205,-9.396 9.395,-9.396 C -4.203,-9.396 0,-5.189 0,0" />
      </g>
      <g
         transform="translate(492.357,417.5017)"
         id="g3066">
        <path
           inkscape:connector-curvature="0"
           id="path3068"
           style="fill:#ed1d24;fill-opacity:1;fill-rule:nonzero;stroke:none"
           d="m 0,0 c 0,5.188 -4.206,9.393 -9.394,9.393 -5.188,0 -9.393,-4.205 -9.393,-9.393 0,-5.19 4.205,-9.395 9.393,-9.395 C -4.206,-9.395 0,-5.19 0,0" />
      </g>
      <g
         transform="translate(492.357,372.88)"
         id="g3070">
        <path
           inkscape:connector-curvature="0"
           id="path3072"
           style="fill:#ed1d24;fill-opacity:1;fill-rule:nonzero;stroke:none"
           d="m 0,0 c 0,5.188 -4.206,9.391 -9.394,9.391 -5.188,0 -9.393,-4.203 -9.393,-9.391 0,-5.189 4.205,-9.396 9.393,-9.396 C -4.206,-9.396 0,-5.189 0,0" />
      </g>
      <g
         transform="translate(531.3501,395.2606)"
         id="g3074">
        <path
           inkscape:connector-curvature="0"
           id="path3076"
           style="fill:#ed1d24;fill-opacity:1;fill-rule:nonzero;stroke:none"
           d="m 0,0 c 0,5.189 -4.207,9.394 -9.395,9.394 -5.189,0 -9.393,-4.205 -9.393,-9.394 0,-5.188 4.204,-9.395 9.393,-9.395 C -4.207,-9.395 0,-5.188 0,0" />
      </g>
      <g
         transform="translate(531.3501,350.2166)"
         id="g3078">
        <path
           inkscape:connector-curvature="0"
           id="path3080"
           style="fill:#ed1d24;fill-opacity:1;fill-rule:nonzero;stroke:none"
           d="m 0,0 c 0,5.189 -4.207,9.392 -9.395,9.392 -5.189,0 -9.393,-4.203 -9.393,-9.392 0,-5.189 4.204,-9.395 9.393,-9.395 C -4.207,-9.395 0,-5.189 0,0" />
      </g>
      <g
         transform="translate(529.7991,350.3833)"
         id="g3082">
        <path
           inkscape:connector-curvature="0"
           id="path3084"
           style="fill:#ed1d24;fill-opacity:1;fill-rule:nonzero;stroke:none"
           d="m 0,0 c 0,4.333 -3.511,7.845 -7.844,7.845 -4.333,0 -7.846,-3.512 -7.846,-7.845 0,-4.334 3.513,-7.845 7.846,-7.845 C -3.511,-7.845 0,-4.334 0,0" />
      </g>
      <path
         inkscape:connector-curvature="0"
         id="path3086"
         style="fill:#ed1d24;fill-opacity:1;fill-rule:nonzero;stroke:none"
         d="m 564.157,379.678 -7.039,0 0,30.546 7.039,0 0,-30.546 z" />
      <path
         inkscape:connector-curvature="0"
         id="path3088"
         style="fill:#ed1d24;fill-opacity:1;fill-rule:nonzero;stroke:none"
         d="m 486.596,379.678 -7.037,0 0,30.546 7.037,0 0,-30.546 z" />
      <path
         inkscape:connector-curvature="0"
         id="path3090"
         style="fill:#ed1d24;fill-opacity:1;fill-rule:nonzero;stroke:none"
         d="m 525.447,357.154 -7.037,0 0,30.546 7.037,0 0,-30.546 z" />
      <path
         d="m 488.0671,365.7993 3.532,6.089 26.422,-15.326 -3.529,-6.088 -26.425,15.325 z"
         style="fill:#ed1d24;fill-opacity:1;fill-rule:nonzero;stroke:none"
         id="path3094"
         inkscape:connector-curvature="0" />
      <path
         d="m 526.9812,432.8941 3.53,6.087 26.423,-15.325 -3.532,-6.087 -26.421,15.325 z"
         style="fill:#ed1d24;fill-opacity:1;fill-rule:nonzero;stroke:none"
         id="path3098"
         inkscape:connector-curvature="0" />
      <path
         d="m 488.006,410.5864 3.53,6.088 26.423,-15.325 -3.529,-6.088 -26.424,15.325 z"
         style="fill:#ed1d24;fill-opacity:1;fill-rule:nonzero;stroke:none"
         id="path3102"
         inkscape:connector-curvature="0" />
      <path
         d="m 513.3212,438.8141 3.531,-6.088 -26.425,-15.322 -3.53,6.085 26.424,15.325 z"
         style="fill:#ed1d24;fill-opacity:1;fill-rule:nonzero;stroke:none"
         id="path3106"
         inkscape:connector-curvature="0" />
      <path
         d="m 552.2303,371.7205 3.53,-6.09 -26.423,-15.322 -3.53,6.087 26.423,15.325 z"
         style="fill:#ed1d24;fill-opacity:1;fill-rule:nonzero;stroke:none"
         id="path3110"
         inkscape:connector-curvature="0" />
      <path
         d="m 552.2229,416.6274 3.53,-6.09 -26.423,-15.321 -3.529,6.086 26.422,15.325 z"
         style="fill:#ed1d24;fill-opacity:1;fill-rule:nonzero;stroke:none"
         id="path3114"
         inkscape:connector-curvature="0" />
    </g>
  </g>
</svg>
